<?xml version="1.0" encoding="UTF-8"?>
<svg xmlns="http://www.w3.org/2000/svg" xmlns:xlink="http://www.w3.org/1999/xlink" viewBox="0 0 60 60" width="60px" height="60px">
<g id="surface7223144">
<path style=" stroke:none;fill-rule:nonzero;fill:rgb(52.156866%,54.901963%,86.666667%);fill-opacity:1;" d="M 52.5 46.25 C 52.5 49.703125 49.703125 52.5 46.25 52.5 L 13.75 52.5 C 10.296875 52.5 7.5 49.703125 7.5 46.25 L 7.5 13.75 C 7.5 10.296875 10.296875 7.5 13.75 7.5 L 46.25 7.5 C 49.703125 7.5 52.5 10.296875 52.5 13.75 Z M 52.5 46.25 "/>
<path style=" stroke:none;fill-rule:nonzero;fill:rgb(100%,100%,100%);fill-opacity:1;" d="M 41.289062 32 C 40.476562 30.875 39.300781 30.101562 37.789062 29.6875 C 37.789062 29.6875 39.0625 29.226562 40.210938 27.5 C 40.898438 26.398438 41.25 25.074219 41.25 23.523438 C 41.25 20.835938 40.273438 18.773438 38.324219 17.363281 C 36.375 15.949219 34.175781 15 30.4375 15 L 18.75 15 L 18.75 45 L 31.789062 45 C 35.324219 44.976562 37.988281 44.210938 39.800781 42.75 C 41.601562 41.261719 42.5 39.0625 42.5 36.125 C 42.5 34.5 42.101562 33.125 41.289062 32 Z M 26.25 20 C 26.25 20 31.460938 20 31.5625 20 C 33.460938 20 35 21.539062 35 23.4375 C 35 25.335938 33.460938 26.875 31.5625 26.875 C 31.460938 26.875 26.25 26.875 26.25 26.875 Z M 32.5 40 L 26.25 40 L 26.25 32.5 L 32.5 32.5 C 34.574219 32.5 36.25 34.175781 36.25 36.25 C 36.25 38.324219 34.574219 40 32.5 40 Z M 32.5 40 "/>
</g>
</svg>
