<?xml version="1.0" encoding="UTF-8"?>
<svg xmlns="http://www.w3.org/2000/svg" xmlns:xlink="http://www.w3.org/1999/xlink" viewBox="0 0 60 60" width="60px" height="60px">
<g id="surface7199439">
<path style=" stroke:none;fill-rule:nonzero;fill:rgb(52.156866%,54.901963%,86.666667%);fill-opacity:1;" d="M 50.855469 6.664062 C 50.476562 6.242188 49.933594 6 49.367188 6 L 10.632812 6 C 10.066406 6 9.523438 6.242188 9.144531 6.664062 C 8.765625 7.089844 8.585938 7.65625 8.644531 8.21875 L 13.050781 47.867188 C 13.136719 48.671875 13.707031 49.347656 14.488281 49.566406 L 29.449219 53.84375 C 29.628906 53.894531 29.8125 53.921875 29.996094 53.921875 C 30.183594 53.921875 30.367188 53.894531 30.546875 53.84375 L 45.507812 49.566406 C 46.289062 49.347656 46.855469 48.671875 46.945312 47.867188 L 51.351562 8.21875 C 51.414062 7.65625 51.234375 7.089844 50.855469 6.664062 Z M 41.03125 26.148438 L 40.140625 40.71875 L 30.0625 44.011719 L 19.988281 40.71875 L 19.605469 33.75 L 24.707031 33.75 L 24.835938 36.917969 L 30.0625 38.691406 L 35.292969 36.917969 L 35.675781 31.21875 L 24.453125 31.21875 L 24.199219 26.148438 L 35.933594 26.148438 L 36.3125 21.082031 L 18.710938 21.082031 L 18.328125 16.011719 L 41.671875 16.011719 Z M 41.03125 26.148438 "/>
</g>
</svg>
