<?xml version="1.0" encoding="UTF-8"?>
<svg xmlns="http://www.w3.org/2000/svg" xmlns:xlink="http://www.w3.org/1999/xlink" viewBox="0 0 60 60" width="60px" height="60px">
<g id="surface7230533">
<path style=" stroke:none;fill-rule:nonzero;fill:rgb(52.156866%,54.901963%,86.666667%);fill-opacity:1;" d="M 28.125 7.5 C 27.78125 7.5 27.5 7.78125 27.5 8.125 L 27.5 11.875 C 27.5 12.21875 27.78125 12.5 28.125 12.5 L 31.875 12.5 C 32.21875 12.5 32.5 12.21875 32.5 11.875 L 32.5 8.125 C 32.5 7.78125 32.21875 7.5 31.875 7.5 Z M 13.125 15 C 12.78125 15 12.5 15.28125 12.5 15.625 L 12.5 19.375 C 12.5 19.71875 12.78125 20 13.125 20 L 16.875 20 C 17.21875 20 17.5 19.71875 17.5 19.375 L 17.5 15.625 C 17.5 15.28125 17.21875 15 16.875 15 Z M 20.625 15 C 20.28125 15 20 15.28125 20 15.625 L 20 19.375 C 20 19.71875 20.28125 20 20.625 20 L 24.375 20 C 24.71875 20 25 19.71875 25 19.375 L 25 15.625 C 25 15.28125 24.71875 15 24.375 15 Z M 28.125 15 C 27.78125 15 27.5 15.28125 27.5 15.625 L 27.5 19.375 C 27.5 19.71875 27.78125 20 28.125 20 L 31.875 20 C 32.21875 20 32.5 19.71875 32.5 19.375 L 32.5 15.625 C 32.5 15.28125 32.21875 15 31.875 15 Z M 46.847656 17.875 L 46.28125 18.6875 C 45.574219 19.78125 45.058594 20.984375 44.753906 22.25 C 44.179688 24.664062 44.527344 26.933594 45.757812 28.871094 C 44.269531 29.699219 41.734375 29.984375 41.25 30 L 2.5 30 C 1.117188 30 0 31.117188 0 32.5 C 0 35 0.542969 38.65625 1.734375 41.894531 C 3.09375 45.449219 5.121094 48.066406 7.757812 49.671875 C 10.707031 51.472656 15.507812 52.5 20.945312 52.5 C 23.402344 52.507812 25.855469 52.285156 28.269531 51.839844 C 31.625 51.226562 34.855469 50.054688 37.828125 48.382812 C 40.273438 46.96875 42.476562 45.175781 44.351562 43.0625 C 47.480469 39.535156 49.347656 35.601562 50.734375 32.109375 C 50.742188 32.105469 50.746094 32.105469 50.75 32.101562 C 54.5 32.25 56.765625 30.804688 57.988281 29.601562 C 58.761719 28.871094 59.363281 27.976562 59.753906 26.992188 L 60 26.277344 L 59.410156 25.8125 C 59.246094 25.683594 57.726562 24.542969 54.523438 24.542969 C 53.675781 24.542969 52.832031 24.617188 52 24.757812 C 51.378906 20.527344 47.867188 18.460938 47.710938 18.371094 Z M 5.625 22.5 C 5.28125 22.5 5 22.78125 5 23.125 L 5 26.875 C 5 27.21875 5.28125 27.5 5.625 27.5 L 9.375 27.5 C 9.71875 27.5 10 27.21875 10 26.875 L 10 23.125 C 10 22.78125 9.71875 22.5 9.375 22.5 Z M 13.125 22.5 C 12.78125 22.5 12.5 22.78125 12.5 23.125 L 12.5 26.875 C 12.5 27.21875 12.78125 27.5 13.125 27.5 L 16.875 27.5 C 17.21875 27.5 17.5 27.21875 17.5 26.875 L 17.5 23.125 C 17.5 22.78125 17.21875 22.5 16.875 22.5 Z M 20.625 22.5 C 20.28125 22.5 20 22.78125 20 23.125 L 20 26.875 C 20 27.21875 20.28125 27.5 20.625 27.5 L 24.375 27.5 C 24.71875 27.5 25 27.21875 25 26.875 L 25 23.125 C 25 22.78125 24.71875 22.5 24.375 22.5 Z M 28.125 22.5 C 27.78125 22.5 27.5 22.78125 27.5 23.125 L 27.5 26.875 C 27.5 27.21875 27.78125 27.5 28.125 27.5 L 31.875 27.5 C 32.21875 27.5 32.5 27.21875 32.5 26.875 L 32.5 23.125 C 32.5 22.78125 32.21875 22.5 31.875 22.5 Z M 35.625 22.5 C 35.28125 22.5 35 22.78125 35 23.125 L 35 26.875 C 35 27.21875 35.28125 27.5 35.625 27.5 L 39.375 27.5 C 39.71875 27.5 40 27.21875 40 26.875 L 40 23.125 C 40 22.78125 39.71875 22.5 39.375 22.5 Z M 35.625 22.5 "/>
</g>
</svg>
