<?xml version="1.0" encoding="UTF-8"?>
<svg xmlns="http://www.w3.org/2000/svg" xmlns:xlink="http://www.w3.org/1999/xlink" viewBox="0 0 60 60" width="60px" height="60px">
<g id="surface7420186">
<path style=" stroke:none;fill-rule:nonzero;fill:rgb(52.156866%,54.901963%,86.666667%);fill-opacity:1;" d="M 30 2.398438 C 29.140625 2.398438 28.285156 2.617188 27.519531 3.046875 L 7.308594 14.40625 C 5.761719 15.273438 4.800781 16.898438 4.800781 18.640625 L 4.800781 41.359375 C 4.800781 43.101562 5.761719 44.726562 7.308594 45.59375 L 27.519531 56.953125 C 28.285156 57.382812 29.140625 57.601562 30 57.601562 C 30.859375 57.601562 31.714844 57.382812 32.480469 56.953125 L 52.691406 45.601562 C 54.238281 44.726562 55.199219 43.101562 55.199219 41.359375 L 55.199219 18.640625 C 55.199219 16.898438 54.238281 15.273438 52.691406 14.40625 L 32.480469 3.046875 C 31.714844 2.617188 30.859375 2.398438 30 2.398438 Z M 30 15.601562 C 34.539062 15.601562 38.734375 17.703125 41.453125 21.285156 L 36.191406 24.332031 C 34.613281 22.601562 32.367188 21.601562 30 21.601562 C 25.367188 21.601562 21.601562 25.367188 21.601562 30 C 21.601562 34.632812 25.367188 38.398438 30 38.398438 C 32.367188 38.398438 34.613281 37.398438 36.191406 35.667969 L 41.453125 38.714844 C 38.734375 42.296875 34.539062 44.398438 30 44.398438 C 22.058594 44.398438 15.601562 37.941406 15.601562 30 C 15.601562 22.058594 22.058594 15.601562 30 15.601562 Z M 42 24 L 44.398438 24 L 44.398438 26.398438 L 46.800781 26.398438 L 46.800781 24 L 49.199219 24 L 49.199219 26.398438 L 51.601562 26.398438 L 51.601562 28.800781 L 49.199219 28.800781 L 49.199219 31.199219 L 51.601562 31.199219 L 51.601562 33.601562 L 49.199219 33.601562 L 49.199219 36 L 46.800781 36 L 46.800781 33.601562 L 44.398438 33.601562 L 44.398438 36 L 42 36 L 42 33.601562 L 39.601562 33.601562 L 39.601562 31.199219 L 42 31.199219 L 42 28.800781 L 39.601562 28.800781 L 39.601562 26.398438 L 42 26.398438 Z M 44.398438 28.800781 L 44.398438 31.199219 L 46.800781 31.199219 L 46.800781 28.800781 Z M 44.398438 28.800781 "/>
</g>
</svg>
