<?xml version="1.0" encoding="UTF-8"?>
<svg xmlns="http://www.w3.org/2000/svg" xmlns:xlink="http://www.w3.org/1999/xlink" viewBox="0 0 60 60" width="60px" height="60px">
<g id="surface7435913">
<path style=" stroke:none;fill-rule:nonzero;fill:rgb(52.156866%,54.901963%,86.666667%);fill-opacity:1;" d="M 33.824219 -0.00390625 C 37.125 7.632812 21.984375 12.347656 20.582031 18.710938 C 19.289062 24.554688 29.570312 31.34375 29.574219 31.34375 C 28.011719 28.925781 26.882812 26.929688 25.316406 23.164062 C 22.667969 16.800781 41.4375 11.042969 33.824219 -0.00390625 Z M 43.859375 10.574219 C 43.859375 10.574219 30.605469 11.414062 29.929688 19.898438 C 29.628906 23.675781 33.414062 25.691406 33.523438 28.445312 C 33.609375 30.683594 31.261719 32.554688 31.261719 32.554688 C 31.261719 32.554688 35.523438 31.753906 36.859375 28.328125 C 38.335938 24.523438 33.992188 21.929688 34.429688 18.886719 C 34.851562 15.976562 43.859375 10.574219 43.859375 10.574219 Z M 47.078125 30.171875 C 45.6875 30.113281 44.148438 30.570312 42.75 31.574219 C 45.488281 30.988281 47.804688 32.664062 47.804688 34.59375 C 47.804688 38.945312 41.515625 43.054688 41.515625 43.054688 C 41.515625 43.054688 51.25 41.945312 51.25 34.800781 C 51.25 31.847656 49.382812 30.28125 47.078125 30.171875 Z M 23.019531 30.183594 C 23.019531 30.183594 10.875 30.019531 10.875 33.453125 C 10.875 37.046875 26.78125 37.296875 38.136719 35.085938 C 38.136719 35.085938 41.171875 33.007812 41.976562 32.234375 C 34.53125 33.753906 17.546875 33.957031 17.546875 32.644531 C 17.546875 31.429688 23.019531 30.183594 23.019531 30.183594 Z M 20.085938 36.867188 C 18.226562 36.867188 15.445312 38.304688 15.445312 39.695312 C 15.445312 42.484375 29.476562 44.632812 39.863281 40.554688 L 36.265625 38.351562 C 29.226562 40.609375 16.246094 39.886719 20.085938 36.867188 Z M 21.816406 43.105469 C 19.261719 43.105469 17.605469 44.679688 17.605469 45.84375 C 17.605469 49.425781 32.855469 49.785156 38.898438 46.144531 L 35.058594 43.703125 C 30.542969 45.609375 19.210938 45.867188 21.816406 43.105469 Z M 13.308594 46.351562 C 9.144531 46.265625 6.441406 48.136719 6.441406 49.6875 C 6.4375 57.9375 49.070312 57.539062 49.070312 49.105469 C 49.070312 47.710938 47.417969 47.042969 46.824219 46.726562 C 50.304688 54.789062 11.960938 54.164062 11.960938 49.40625 C 11.960938 48.324219 14.773438 47.257812 17.390625 47.769531 L 15.171875 46.507812 C 14.523438 46.410156 13.898438 46.359375 13.308594 46.351562 Z M 53.5625 51.898438 C 47.082031 58.039062 30.65625 60.28125 14.136719 56.488281 C 30.652344 63.242188 53.480469 59.441406 53.5625 51.898438 Z M 53.5625 51.898438 "/>
</g>
</svg>
