<?xml version="1.0" encoding="UTF-8"?>
<svg xmlns="http://www.w3.org/2000/svg" xmlns:xlink="http://www.w3.org/1999/xlink" viewBox="0 0 60 60" width="60px" height="60px">
<g id="surface7203252">
<path style=" stroke:none;fill-rule:nonzero;fill:rgb(52.156866%,54.901963%,86.666667%);fill-opacity:1;" d="M 32.34375 30.261719 C 32.472656 30.421875 32.523438 30.660156 32.488281 30.878906 L 32.144531 32.390625 C 32.109375 32.625 31.945312 32.808594 31.746094 32.917969 L 30.347656 33.570312 C 30.148438 33.679688 29.894531 33.679688 29.695312 33.570312 L 28.296875 32.917969 C 28.097656 32.808594 27.933594 32.625 27.898438 32.390625 L 27.550781 30.878906 C 27.515625 30.660156 27.570312 30.421875 27.699219 30.261719 L 28.675781 29.042969 C 28.804688 28.859375 29.023438 28.75 29.257812 28.75 L 30.78125 28.75 C 31.019531 28.75 31.234375 28.859375 31.363281 29.042969 Z M 32.34375 30.261719 "/>
<path style=" stroke:none;fill-rule:nonzero;fill:rgb(52.156866%,54.901963%,86.666667%);fill-opacity:1;" d="M 31.640625 19.164062 L 31.699219 19.632812 C 31.867188 20.925781 31.988281 22.238281 32.109375 23.535156 C 32.15625 24.050781 32.203125 24.554688 32.238281 25.070312 C 32.261719 25.46875 32.707031 25.671875 33.03125 25.445312 C 33.4375 25.144531 33.859375 24.84375 34.289062 24.554688 C 35.367188 23.824219 36.433594 23.089844 37.535156 22.382812 L 37.945312 22.128906 C 36.230469 20.566406 34.046875 19.5 31.640625 19.164062 Z M 31.640625 19.164062 L 31.699219 19.632812 C 31.867188 20.925781 31.988281 22.238281 32.109375 23.535156 C 32.15625 24.050781 32.203125 24.554688 32.238281 25.070312 C 32.261719 25.46875 32.707031 25.671875 33.03125 25.445312 C 33.4375 25.144531 33.859375 24.84375 34.289062 24.554688 C 35.367188 23.824219 36.433594 23.089844 37.535156 22.382812 L 37.945312 22.128906 C 36.230469 20.566406 34.046875 19.5 31.640625 19.164062 Z M 31.640625 19.164062 L 31.699219 19.632812 C 31.867188 20.925781 31.988281 22.238281 32.109375 23.535156 C 32.15625 24.050781 32.203125 24.554688 32.238281 25.070312 C 32.261719 25.46875 32.707031 25.671875 33.03125 25.445312 C 33.4375 25.144531 33.859375 24.84375 34.289062 24.554688 C 35.367188 23.824219 36.433594 23.089844 37.535156 22.382812 L 37.945312 22.128906 C 36.230469 20.566406 34.046875 19.5 31.640625 19.164062 Z M 31.640625 19.164062 L 31.699219 19.632812 C 31.867188 20.925781 31.988281 22.238281 32.109375 23.535156 C 32.15625 24.050781 32.203125 24.554688 32.238281 25.070312 C 32.261719 25.46875 32.707031 25.671875 33.03125 25.445312 C 33.4375 25.144531 33.859375 24.84375 34.289062 24.554688 C 35.367188 23.824219 36.433594 23.089844 37.535156 22.382812 L 37.945312 22.128906 C 36.230469 20.566406 34.046875 19.5 31.640625 19.164062 Z M 31.640625 19.164062 L 31.699219 19.632812 C 31.867188 20.925781 31.988281 22.238281 32.109375 23.535156 C 32.15625 24.050781 32.203125 24.554688 32.238281 25.070312 C 32.261719 25.46875 32.707031 25.671875 33.03125 25.445312 C 33.4375 25.144531 33.859375 24.84375 34.289062 24.554688 C 35.367188 23.824219 36.433594 23.089844 37.535156 22.382812 L 37.945312 22.128906 C 36.230469 20.566406 34.046875 19.5 31.640625 19.164062 Z M 40.148438 24.792969 L 39.824219 25.140625 C 38.925781 26.105469 38.003906 27.027344 37.078125 27.953125 C 36.492188 28.550781 35.859375 29.128906 35.246094 29.71875 C 36.0625 29.921875 36.875 30.136719 37.691406 30.378906 C 38.949219 30.738281 40.195312 31.085938 41.441406 31.492188 L 41.886719 31.636719 C 41.898438 31.445312 41.898438 31.242188 41.898438 31.039062 C 41.898438 28.746094 41.265625 26.609375 40.148438 24.792969 Z M 40.148438 24.792969 L 39.824219 25.140625 C 38.925781 26.105469 38.003906 27.027344 37.078125 27.953125 C 36.492188 28.550781 35.859375 29.128906 35.246094 29.71875 C 36.0625 29.921875 36.875 30.136719 37.691406 30.378906 C 38.949219 30.738281 40.195312 31.085938 41.441406 31.492188 L 41.886719 31.636719 C 41.898438 31.445312 41.898438 31.242188 41.898438 31.039062 C 41.898438 28.746094 41.265625 26.609375 40.148438 24.792969 Z M 31.640625 19.164062 L 31.699219 19.632812 C 31.867188 20.925781 31.988281 22.238281 32.109375 23.535156 C 32.15625 24.050781 32.203125 24.554688 32.238281 25.070312 C 32.261719 25.46875 32.707031 25.671875 33.03125 25.445312 C 33.4375 25.144531 33.859375 24.84375 34.289062 24.554688 C 35.367188 23.824219 36.433594 23.089844 37.535156 22.382812 L 37.945312 22.128906 C 36.230469 20.566406 34.046875 19.5 31.640625 19.164062 Z M 31.640625 19.164062 L 31.699219 19.632812 C 31.867188 20.925781 31.988281 22.238281 32.109375 23.535156 C 32.15625 24.050781 32.203125 24.554688 32.238281 25.070312 C 32.261719 25.46875 32.707031 25.671875 33.03125 25.445312 C 33.4375 25.144531 33.859375 24.84375 34.289062 24.554688 C 35.367188 23.824219 36.433594 23.089844 37.535156 22.382812 L 37.945312 22.128906 C 36.230469 20.566406 34.046875 19.5 31.640625 19.164062 Z M 40.785156 35.023438 C 39.476562 34.941406 38.183594 34.820312 36.875 34.703125 C 36.3125 34.652344 35.761719 34.59375 35.199219 34.53125 C 34.839844 34.484375 34.550781 34.84375 34.683594 35.191406 C 34.886719 35.734375 35.078125 36.273438 35.269531 36.828125 C 35.691406 38.050781 36.121094 39.289062 36.515625 40.535156 L 36.648438 40.96875 C 38.734375 39.539062 40.351562 37.476562 41.203125 35.046875 Z M 40.148438 24.792969 L 39.824219 25.140625 C 38.925781 26.105469 38.003906 27.027344 37.078125 27.953125 C 36.492188 28.550781 35.859375 29.128906 35.246094 29.71875 C 36.0625 29.921875 36.875 30.136719 37.691406 30.378906 C 38.949219 30.738281 40.195312 31.085938 41.441406 31.492188 L 41.886719 31.636719 C 41.898438 31.445312 41.898438 31.242188 41.898438 31.039062 C 41.898438 28.746094 41.265625 26.609375 40.148438 24.792969 Z M 40.148438 24.792969 L 39.824219 25.140625 C 38.925781 26.105469 38.003906 27.027344 37.078125 27.953125 C 36.492188 28.550781 35.859375 29.128906 35.246094 29.71875 C 36.0625 29.921875 36.875 30.136719 37.691406 30.378906 C 38.949219 30.738281 40.195312 31.085938 41.441406 31.492188 L 41.886719 31.636719 C 41.898438 31.445312 41.898438 31.242188 41.898438 31.039062 C 41.898438 28.746094 41.265625 26.609375 40.148438 24.792969 Z M 40.785156 35.023438 C 39.476562 34.941406 38.183594 34.820312 36.875 34.703125 C 36.3125 34.652344 35.761719 34.59375 35.199219 34.53125 C 34.839844 34.484375 34.550781 34.84375 34.683594 35.191406 C 34.886719 35.734375 35.078125 36.273438 35.269531 36.828125 C 35.691406 38.050781 36.121094 39.289062 36.515625 40.535156 L 36.648438 40.96875 C 38.734375 39.539062 40.351562 37.476562 41.203125 35.046875 Z M 31.640625 19.164062 L 31.699219 19.632812 C 31.867188 20.925781 31.988281 22.238281 32.109375 23.535156 C 32.15625 24.050781 32.203125 24.554688 32.238281 25.070312 C 32.261719 25.46875 32.707031 25.671875 33.03125 25.445312 C 33.4375 25.144531 33.859375 24.84375 34.289062 24.554688 C 35.367188 23.824219 36.433594 23.089844 37.535156 22.382812 L 37.945312 22.128906 C 36.230469 20.566406 34.046875 19.5 31.640625 19.164062 Z M 31.640625 19.164062 L 31.699219 19.632812 C 31.867188 20.925781 31.988281 22.238281 32.109375 23.535156 C 32.15625 24.050781 32.203125 24.554688 32.238281 25.070312 C 32.261719 25.46875 32.707031 25.671875 33.03125 25.445312 C 33.4375 25.144531 33.859375 24.84375 34.289062 24.554688 C 35.367188 23.824219 36.433594 23.089844 37.535156 22.382812 L 37.945312 22.128906 C 36.230469 20.566406 34.046875 19.5 31.640625 19.164062 Z M 40.785156 35.023438 C 39.476562 34.941406 38.183594 34.820312 36.875 34.703125 C 36.3125 34.652344 35.761719 34.59375 35.199219 34.53125 C 34.839844 34.484375 34.550781 34.84375 34.683594 35.191406 C 34.886719 35.734375 35.078125 36.273438 35.269531 36.828125 C 35.691406 38.050781 36.121094 39.289062 36.515625 40.535156 L 36.648438 40.96875 C 38.734375 39.539062 40.351562 37.476562 41.203125 35.046875 Z M 40.148438 24.792969 L 39.824219 25.140625 C 38.925781 26.105469 38.003906 27.027344 37.078125 27.953125 C 36.492188 28.550781 35.859375 29.128906 35.246094 29.71875 C 36.0625 29.921875 36.875 30.136719 37.691406 30.378906 C 38.949219 30.738281 40.195312 31.085938 41.441406 31.492188 L 41.886719 31.636719 C 41.898438 31.445312 41.898438 31.242188 41.898438 31.039062 C 41.898438 28.746094 41.265625 26.609375 40.148438 24.792969 Z M 40.148438 24.792969 L 39.824219 25.140625 C 38.925781 26.105469 38.003906 27.027344 37.078125 27.953125 C 36.492188 28.550781 35.859375 29.128906 35.246094 29.71875 C 36.0625 29.921875 36.875 30.136719 37.691406 30.378906 C 38.949219 30.738281 40.195312 31.085938 41.441406 31.492188 L 41.886719 31.636719 C 41.898438 31.445312 41.898438 31.242188 41.898438 31.039062 C 41.898438 28.746094 41.265625 26.609375 40.148438 24.792969 Z M 40.785156 35.023438 C 39.476562 34.941406 38.183594 34.820312 36.875 34.703125 C 36.3125 34.652344 35.761719 34.59375 35.199219 34.53125 C 34.839844 34.484375 34.550781 34.84375 34.683594 35.191406 C 34.886719 35.734375 35.078125 36.273438 35.269531 36.828125 C 35.691406 38.050781 36.121094 39.289062 36.515625 40.535156 L 36.648438 40.96875 C 38.734375 39.539062 40.351562 37.476562 41.203125 35.046875 Z M 31.640625 19.164062 L 31.699219 19.632812 C 31.867188 20.925781 31.988281 22.238281 32.109375 23.535156 C 32.15625 24.050781 32.203125 24.554688 32.238281 25.070312 C 32.261719 25.46875 32.707031 25.671875 33.03125 25.445312 C 33.4375 25.144531 33.859375 24.84375 34.289062 24.554688 C 35.367188 23.824219 36.433594 23.089844 37.535156 22.382812 L 37.945312 22.128906 C 36.230469 20.566406 34.046875 19.5 31.640625 19.164062 Z M 33.257812 42.023438 C 32.5625 40.921875 31.914062 39.78125 31.265625 38.652344 C 30.980469 38.160156 30.703125 37.667969 30.441406 37.164062 C 30.25 36.8125 29.757812 36.8125 29.566406 37.164062 C 29.289062 37.679688 29 38.183594 28.703125 38.675781 C 28.042969 39.804688 27.382812 40.933594 26.6875 42.039062 L 26.390625 42.515625 C 27.503906 42.867188 28.691406 43.046875 29.914062 43.046875 C 31.171875 43.046875 32.394531 42.855469 33.53125 42.480469 Z M 31.640625 19.164062 L 31.699219 19.632812 C 31.867188 20.925781 31.988281 22.238281 32.109375 23.535156 C 32.15625 24.050781 32.203125 24.554688 32.238281 25.070312 C 32.261719 25.46875 32.707031 25.671875 33.03125 25.445312 C 33.4375 25.144531 33.859375 24.84375 34.289062 24.554688 C 35.367188 23.824219 36.433594 23.089844 37.535156 22.382812 L 37.945312 22.128906 C 36.230469 20.566406 34.046875 19.5 31.640625 19.164062 Z M 40.785156 35.023438 C 39.476562 34.941406 38.183594 34.820312 36.875 34.703125 C 36.3125 34.652344 35.761719 34.59375 35.199219 34.53125 C 34.839844 34.484375 34.550781 34.84375 34.683594 35.191406 C 34.886719 35.734375 35.078125 36.273438 35.269531 36.828125 C 35.691406 38.050781 36.121094 39.289062 36.515625 40.535156 L 36.648438 40.96875 C 38.734375 39.539062 40.351562 37.476562 41.203125 35.046875 Z M 40.148438 24.792969 L 39.824219 25.140625 C 38.925781 26.105469 38.003906 27.027344 37.078125 27.953125 C 36.492188 28.550781 35.859375 29.128906 35.246094 29.71875 C 36.0625 29.921875 36.875 30.136719 37.691406 30.378906 C 38.949219 30.738281 40.195312 31.085938 41.441406 31.492188 L 41.886719 31.636719 C 41.898438 31.445312 41.898438 31.242188 41.898438 31.039062 C 41.898438 28.746094 41.265625 26.609375 40.148438 24.792969 Z M 40.148438 24.792969 L 39.824219 25.140625 C 38.925781 26.105469 38.003906 27.027344 37.078125 27.953125 C 36.492188 28.550781 35.859375 29.128906 35.246094 29.71875 C 36.0625 29.921875 36.875 30.136719 37.691406 30.378906 C 38.949219 30.738281 40.195312 31.085938 41.441406 31.492188 L 41.886719 31.636719 C 41.898438 31.445312 41.898438 31.242188 41.898438 31.039062 C 41.898438 28.746094 41.265625 26.609375 40.148438 24.792969 Z M 40.785156 35.023438 C 39.476562 34.941406 38.183594 34.820312 36.875 34.703125 C 36.3125 34.652344 35.761719 34.59375 35.199219 34.53125 C 34.839844 34.484375 34.550781 34.84375 34.683594 35.191406 C 34.886719 35.734375 35.078125 36.273438 35.269531 36.828125 C 35.691406 38.050781 36.121094 39.289062 36.515625 40.535156 L 36.648438 40.96875 C 38.734375 39.539062 40.351562 37.476562 41.203125 35.046875 Z M 31.640625 19.164062 L 31.699219 19.632812 C 31.867188 20.925781 31.988281 22.238281 32.109375 23.535156 C 32.15625 24.050781 32.203125 24.554688 32.238281 25.070312 C 32.261719 25.46875 32.707031 25.671875 33.03125 25.445312 C 33.4375 25.144531 33.859375 24.84375 34.289062 24.554688 C 35.367188 23.824219 36.433594 23.089844 37.535156 22.382812 L 37.945312 22.128906 C 36.230469 20.566406 34.046875 19.5 31.640625 19.164062 Z M 33.257812 42.023438 C 32.5625 40.921875 31.914062 39.78125 31.265625 38.652344 C 30.980469 38.160156 30.703125 37.667969 30.441406 37.164062 C 30.25 36.8125 29.757812 36.8125 29.566406 37.164062 C 29.289062 37.679688 29 38.183594 28.703125 38.675781 C 28.042969 39.804688 27.382812 40.933594 26.6875 42.039062 L 26.390625 42.515625 C 27.503906 42.867188 28.691406 43.046875 29.914062 43.046875 C 31.171875 43.046875 32.394531 42.855469 33.53125 42.480469 Z M 24.84375 34.363281 C 24.28125 34.4375 23.730469 34.519531 23.167969 34.582031 C 21.859375 34.738281 20.578125 34.894531 19.269531 35.015625 L 18.625 35.074219 C 19.5 37.523438 21.152344 39.613281 23.273438 41.03125 L 23.441406 40.523438 C 23.847656 39.277344 24.28125 38.050781 24.722656 36.816406 C 24.925781 36.214844 25.144531 35.625 25.371094 35.027344 C 25.515625 34.675781 25.214844 34.304688 24.84375 34.363281 Z M 33.257812 42.023438 C 32.5625 40.921875 31.914062 39.78125 31.265625 38.652344 C 30.980469 38.160156 30.703125 37.667969 30.441406 37.164062 C 30.25 36.8125 29.757812 36.8125 29.566406 37.164062 C 29.289062 37.679688 29 38.183594 28.703125 38.675781 C 28.042969 39.804688 27.382812 40.933594 26.6875 42.039062 L 26.390625 42.515625 C 27.503906 42.867188 28.691406 43.046875 29.914062 43.046875 C 31.171875 43.046875 32.394531 42.855469 33.53125 42.480469 Z M 31.640625 19.164062 L 31.699219 19.632812 C 31.867188 20.925781 31.988281 22.238281 32.109375 23.535156 C 32.15625 24.050781 32.203125 24.554688 32.238281 25.070312 C 32.261719 25.46875 32.707031 25.671875 33.03125 25.445312 C 33.4375 25.144531 33.859375 24.84375 34.289062 24.554688 C 35.367188 23.824219 36.433594 23.089844 37.535156 22.382812 L 37.945312 22.128906 C 36.230469 20.566406 34.046875 19.5 31.640625 19.164062 Z M 40.785156 35.023438 C 39.476562 34.941406 38.183594 34.820312 36.875 34.703125 C 36.3125 34.652344 35.761719 34.59375 35.199219 34.53125 C 34.839844 34.484375 34.550781 34.84375 34.683594 35.191406 C 34.886719 35.734375 35.078125 36.273438 35.269531 36.828125 C 35.691406 38.050781 36.121094 39.289062 36.515625 40.535156 L 36.648438 40.96875 C 38.734375 39.539062 40.351562 37.476562 41.203125 35.046875 Z M 40.148438 24.792969 L 39.824219 25.140625 C 38.925781 26.105469 38.003906 27.027344 37.078125 27.953125 C 36.492188 28.550781 35.859375 29.128906 35.246094 29.71875 C 36.0625 29.921875 36.875 30.136719 37.691406 30.378906 C 38.949219 30.738281 40.195312 31.085938 41.441406 31.492188 L 41.886719 31.636719 C 41.898438 31.445312 41.898438 31.242188 41.898438 31.039062 C 41.898438 28.746094 41.265625 26.609375 40.148438 24.792969 Z M 40.148438 24.792969 L 39.824219 25.140625 C 38.925781 26.105469 38.003906 27.027344 37.078125 27.953125 C 36.492188 28.550781 35.859375 29.128906 35.246094 29.71875 C 36.0625 29.921875 36.875 30.136719 37.691406 30.378906 C 38.949219 30.738281 40.195312 31.085938 41.441406 31.492188 L 41.886719 31.636719 C 41.898438 31.445312 41.898438 31.242188 41.898438 31.039062 C 41.898438 28.746094 41.265625 26.609375 40.148438 24.792969 Z M 40.785156 35.023438 C 39.476562 34.941406 38.183594 34.820312 36.875 34.703125 C 36.3125 34.652344 35.761719 34.59375 35.199219 34.53125 C 34.839844 34.484375 34.550781 34.84375 34.683594 35.191406 C 34.886719 35.734375 35.078125 36.273438 35.269531 36.828125 C 35.691406 38.050781 36.121094 39.289062 36.515625 40.535156 L 36.648438 40.96875 C 38.734375 39.539062 40.351562 37.476562 41.203125 35.046875 Z M 31.640625 19.164062 L 31.699219 19.632812 C 31.867188 20.925781 31.988281 22.238281 32.109375 23.535156 C 32.15625 24.050781 32.203125 24.554688 32.238281 25.070312 C 32.261719 25.46875 32.707031 25.671875 33.03125 25.445312 C 33.4375 25.144531 33.859375 24.84375 34.289062 24.554688 C 35.367188 23.824219 36.433594 23.089844 37.535156 22.382812 L 37.945312 22.128906 C 36.230469 20.566406 34.046875 19.5 31.640625 19.164062 Z M 33.257812 42.023438 C 32.5625 40.921875 31.914062 39.78125 31.265625 38.652344 C 30.980469 38.160156 30.703125 37.667969 30.441406 37.164062 C 30.25 36.8125 29.757812 36.8125 29.566406 37.164062 C 29.289062 37.679688 29 38.183594 28.703125 38.675781 C 28.042969 39.804688 27.382812 40.933594 26.6875 42.039062 L 26.390625 42.515625 C 27.503906 42.867188 28.691406 43.046875 29.914062 43.046875 C 31.171875 43.046875 32.394531 42.855469 33.53125 42.480469 Z M 24.84375 34.363281 C 24.28125 34.4375 23.730469 34.519531 23.167969 34.582031 C 21.859375 34.738281 20.578125 34.894531 19.269531 35.015625 L 18.625 35.074219 C 19.5 37.523438 21.152344 39.613281 23.273438 41.03125 L 23.441406 40.523438 C 23.847656 39.277344 24.28125 38.050781 24.722656 36.816406 C 24.925781 36.214844 25.144531 35.625 25.371094 35.027344 C 25.515625 34.675781 25.214844 34.304688 24.84375 34.363281 Z M 24.84375 34.363281 C 24.28125 34.4375 23.730469 34.519531 23.167969 34.582031 C 21.859375 34.738281 20.578125 34.894531 19.269531 35.015625 L 18.625 35.074219 C 19.5 37.523438 21.152344 39.613281 23.273438 41.03125 L 23.441406 40.523438 C 23.847656 39.277344 24.28125 38.050781 24.722656 36.816406 C 24.925781 36.214844 25.144531 35.625 25.371094 35.027344 C 25.515625 34.675781 25.214844 34.304688 24.84375 34.363281 Z M 33.257812 42.023438 C 32.5625 40.921875 31.914062 39.78125 31.265625 38.652344 C 30.980469 38.160156 30.703125 37.667969 30.441406 37.164062 C 30.25 36.8125 29.757812 36.8125 29.566406 37.164062 C 29.289062 37.679688 29 38.183594 28.703125 38.675781 C 28.042969 39.804688 27.382812 40.933594 26.6875 42.039062 L 26.390625 42.515625 C 27.503906 42.867188 28.691406 43.046875 29.914062 43.046875 C 31.171875 43.046875 32.394531 42.855469 33.53125 42.480469 Z M 31.640625 19.164062 L 31.699219 19.632812 C 31.867188 20.925781 31.988281 22.238281 32.109375 23.535156 C 32.15625 24.050781 32.203125 24.554688 32.238281 25.070312 C 32.261719 25.46875 32.707031 25.671875 33.03125 25.445312 C 33.4375 25.144531 33.859375 24.84375 34.289062 24.554688 C 35.367188 23.824219 36.433594 23.089844 37.535156 22.382812 L 37.945312 22.128906 C 36.230469 20.566406 34.046875 19.5 31.640625 19.164062 Z M 40.785156 35.023438 C 39.476562 34.941406 38.183594 34.820312 36.875 34.703125 C 36.3125 34.652344 35.761719 34.59375 35.199219 34.53125 C 34.839844 34.484375 34.550781 34.84375 34.683594 35.191406 C 34.886719 35.734375 35.078125 36.273438 35.269531 36.828125 C 35.691406 38.050781 36.121094 39.289062 36.515625 40.535156 L 36.648438 40.96875 C 38.734375 39.539062 40.351562 37.476562 41.203125 35.046875 Z M 40.148438 24.792969 L 39.824219 25.140625 C 38.925781 26.105469 38.003906 27.027344 37.078125 27.953125 C 36.492188 28.550781 35.859375 29.128906 35.246094 29.71875 C 36.0625 29.921875 36.875 30.136719 37.691406 30.378906 C 38.949219 30.738281 40.195312 31.085938 41.441406 31.492188 L 41.886719 31.636719 C 41.898438 31.445312 41.898438 31.242188 41.898438 31.039062 C 41.898438 28.746094 41.265625 26.609375 40.148438 24.792969 Z M 40.148438 24.792969 L 39.824219 25.140625 C 38.925781 26.105469 38.003906 27.027344 37.078125 27.953125 C 36.492188 28.550781 35.859375 29.128906 35.246094 29.71875 C 36.0625 29.921875 36.875 30.136719 37.691406 30.378906 C 38.949219 30.738281 40.195312 31.085938 41.441406 31.492188 L 41.886719 31.636719 C 41.898438 31.445312 41.898438 31.242188 41.898438 31.039062 C 41.898438 28.746094 41.265625 26.609375 40.148438 24.792969 Z M 40.785156 35.023438 C 39.476562 34.941406 38.183594 34.820312 36.875 34.703125 C 36.3125 34.652344 35.761719 34.59375 35.199219 34.53125 C 34.839844 34.484375 34.550781 34.84375 34.683594 35.191406 C 34.886719 35.734375 35.078125 36.273438 35.269531 36.828125 C 35.691406 38.050781 36.121094 39.289062 36.515625 40.535156 L 36.648438 40.96875 C 38.734375 39.539062 40.351562 37.476562 41.203125 35.046875 Z M 31.640625 19.164062 L 31.699219 19.632812 C 31.867188 20.925781 31.988281 22.238281 32.109375 23.535156 C 32.15625 24.050781 32.203125 24.554688 32.238281 25.070312 C 32.261719 25.46875 32.707031 25.671875 33.03125 25.445312 C 33.4375 25.144531 33.859375 24.84375 34.289062 24.554688 C 35.367188 23.824219 36.433594 23.089844 37.535156 22.382812 L 37.945312 22.128906 C 36.230469 20.566406 34.046875 19.5 31.640625 19.164062 Z M 33.257812 42.023438 C 32.5625 40.921875 31.914062 39.78125 31.265625 38.652344 C 30.980469 38.160156 30.703125 37.667969 30.441406 37.164062 C 30.25 36.8125 29.757812 36.8125 29.566406 37.164062 C 29.289062 37.679688 29 38.183594 28.703125 38.675781 C 28.042969 39.804688 27.382812 40.933594 26.6875 42.039062 L 26.390625 42.515625 C 27.503906 42.867188 28.691406 43.046875 29.914062 43.046875 C 31.171875 43.046875 32.394531 42.855469 33.53125 42.480469 Z M 24.84375 34.363281 C 24.28125 34.4375 23.730469 34.519531 23.167969 34.582031 C 21.859375 34.738281 20.578125 34.894531 19.269531 35.015625 L 18.625 35.074219 C 19.5 37.523438 21.152344 39.613281 23.273438 41.03125 L 23.441406 40.523438 C 23.847656 39.277344 24.28125 38.050781 24.722656 36.816406 C 24.925781 36.214844 25.144531 35.625 25.371094 35.027344 C 25.515625 34.675781 25.214844 34.304688 24.84375 34.363281 Z M 24.171875 28.890625 C 23.765625 28.515625 23.371094 28.144531 22.972656 27.746094 C 22.039062 26.824219 21.117188 25.910156 20.203125 24.960938 L 19.820312 24.566406 C 18.621094 26.425781 17.925781 28.648438 17.925781 31.039062 C 17.925781 31.265625 17.941406 31.480469 17.941406 31.699219 L 18.503906 31.503906 C 19.738281 31.0625 20.984375 30.675781 22.21875 30.269531 C 22.804688 30.078125 23.394531 29.910156 23.980469 29.730469 C 24.351562 29.621094 24.460938 29.152344 24.171875 28.890625 Z M 24.84375 34.363281 C 24.28125 34.4375 23.730469 34.519531 23.167969 34.582031 C 21.859375 34.738281 20.578125 34.894531 19.269531 35.015625 L 18.625 35.074219 C 19.5 37.523438 21.152344 39.613281 23.273438 41.03125 L 23.441406 40.523438 C 23.847656 39.277344 24.28125 38.050781 24.722656 36.816406 C 24.925781 36.214844 25.144531 35.625 25.371094 35.027344 C 25.515625 34.675781 25.214844 34.304688 24.84375 34.363281 Z M 33.257812 42.023438 C 32.5625 40.921875 31.914062 39.78125 31.265625 38.652344 C 30.980469 38.160156 30.703125 37.667969 30.441406 37.164062 C 30.25 36.8125 29.757812 36.8125 29.566406 37.164062 C 29.289062 37.679688 29 38.183594 28.703125 38.675781 C 28.042969 39.804688 27.382812 40.933594 26.6875 42.039062 L 26.390625 42.515625 C 27.503906 42.867188 28.691406 43.046875 29.914062 43.046875 C 31.171875 43.046875 32.394531 42.855469 33.53125 42.480469 Z M 31.640625 19.164062 L 31.699219 19.632812 C 31.867188 20.925781 31.988281 22.238281 32.109375 23.535156 C 32.15625 24.050781 32.203125 24.554688 32.238281 25.070312 C 32.261719 25.46875 32.707031 25.671875 33.03125 25.445312 C 33.4375 25.144531 33.859375 24.84375 34.289062 24.554688 C 35.367188 23.824219 36.433594 23.089844 37.535156 22.382812 L 37.945312 22.128906 C 36.230469 20.566406 34.046875 19.5 31.640625 19.164062 Z M 40.785156 35.023438 C 39.476562 34.941406 38.183594 34.820312 36.875 34.703125 C 36.3125 34.652344 35.761719 34.59375 35.199219 34.53125 C 34.839844 34.484375 34.550781 34.84375 34.683594 35.191406 C 34.886719 35.734375 35.078125 36.273438 35.269531 36.828125 C 35.691406 38.050781 36.121094 39.289062 36.515625 40.535156 L 36.648438 40.96875 C 38.734375 39.539062 40.351562 37.476562 41.203125 35.046875 Z M 40.148438 24.792969 L 39.824219 25.140625 C 38.925781 26.105469 38.003906 27.027344 37.078125 27.953125 C 36.492188 28.550781 35.859375 29.128906 35.246094 29.71875 C 36.0625 29.921875 36.875 30.136719 37.691406 30.378906 C 38.949219 30.738281 40.195312 31.085938 41.441406 31.492188 L 41.886719 31.636719 C 41.898438 31.445312 41.898438 31.242188 41.898438 31.039062 C 41.898438 28.746094 41.265625 26.609375 40.148438 24.792969 Z M 40.148438 24.792969 L 39.824219 25.140625 C 38.925781 26.105469 38.003906 27.027344 37.078125 27.953125 C 36.492188 28.550781 35.859375 29.128906 35.246094 29.71875 C 36.0625 29.921875 36.875 30.136719 37.691406 30.378906 C 38.949219 30.738281 40.195312 31.085938 41.441406 31.492188 L 41.886719 31.636719 C 41.898438 31.445312 41.898438 31.242188 41.898438 31.039062 C 41.898438 28.746094 41.265625 26.609375 40.148438 24.792969 Z M 36.875 34.703125 C 36.3125 34.652344 35.761719 34.59375 35.199219 34.53125 C 34.839844 34.484375 34.550781 34.84375 34.683594 35.191406 C 34.886719 35.734375 35.078125 36.273438 35.269531 36.828125 C 35.691406 38.050781 36.121094 39.289062 36.515625 40.535156 L 36.648438 40.96875 C 38.734375 39.539062 40.351562 37.476562 41.203125 35.046875 L 40.78125 35.023438 C 39.476562 34.941406 38.183594 34.820312 36.875 34.703125 Z M 37.945312 22.128906 C 36.230469 20.566406 34.046875 19.5 31.640625 19.164062 L 31.699219 19.632812 C 31.867188 20.925781 31.988281 22.238281 32.109375 23.535156 C 32.15625 24.050781 32.203125 24.554688 32.238281 25.070312 C 32.261719 25.46875 32.707031 25.671875 33.03125 25.445312 C 33.4375 25.144531 33.859375 24.84375 34.289062 24.554688 C 35.367188 23.824219 36.433594 23.089844 37.535156 22.382812 Z M 31.265625 38.652344 C 30.980469 38.160156 30.703125 37.667969 30.441406 37.164062 C 30.25 36.8125 29.757812 36.8125 29.566406 37.164062 C 29.289062 37.679688 29 38.183594 28.703125 38.675781 C 28.042969 39.804688 27.382812 40.933594 26.6875 42.039062 L 26.390625 42.515625 C 27.503906 42.867188 28.691406 43.046875 29.914062 43.046875 C 31.171875 43.046875 32.394531 42.855469 33.53125 42.480469 L 33.257812 42.023438 C 32.5625 40.921875 31.914062 39.78125 31.265625 38.652344 Z M 24.84375 34.363281 C 24.28125 34.4375 23.730469 34.519531 23.167969 34.582031 C 21.859375 34.738281 20.578125 34.894531 19.269531 35.015625 L 18.625 35.074219 C 19.5 37.523438 21.152344 39.613281 23.273438 41.03125 L 23.441406 40.523438 C 23.847656 39.277344 24.28125 38.050781 24.722656 36.816406 C 24.925781 36.214844 25.144531 35.625 25.371094 35.027344 C 25.515625 34.675781 25.214844 34.304688 24.84375 34.363281 Z M 23.980469 29.730469 C 24.351562 29.621094 24.460938 29.152344 24.171875 28.890625 C 23.765625 28.515625 23.371094 28.144531 22.972656 27.746094 C 22.039062 26.824219 21.117188 25.910156 20.203125 24.960938 L 19.820312 24.566406 C 18.621094 26.425781 17.925781 28.648438 17.925781 31.039062 C 17.925781 31.265625 17.941406 31.480469 17.941406 31.699219 L 18.503906 31.503906 C 19.738281 31.0625 20.984375 30.675781 22.21875 30.269531 C 22.804688 30.078125 23.394531 29.910156 23.980469 29.730469 Z M 55.957031 35.21875 L 51.378906 15.066406 C 51.175781 14.167969 50.578125 13.421875 49.75 13.015625 L 31.21875 4.054688 C 30.390625 3.648438 29.433594 3.648438 28.609375 4.054688 L 10.078125 13.015625 C 9.25 13.421875 8.652344 14.167969 8.449219 15.066406 L 3.871094 35.21875 C 3.667969 36.117188 3.882812 37.054688 4.445312 37.765625 L 17.269531 53.925781 C 17.84375 54.644531 18.71875 55.066406 19.628906 55.066406 L 40.195312 55.066406 C 41.109375 55.066406 41.984375 54.648438 42.558594 53.925781 L 55.382812 37.765625 C 55.945312 37.054688 56.160156 36.117188 55.957031 35.21875 Z M 49.558594 36.058594 C 49.199219 36.140625 48.839844 36.058594 48.550781 35.878906 C 47.964844 35.480469 47.339844 35.265625 46.71875 35.085938 C 46.40625 35 46.082031 34.929688 45.769531 34.882812 C 45.460938 34.785156 45.101562 34.882812 44.738281 35.046875 C 44.378906 35.253906 44.054688 35.21875 43.722656 35.191406 L 43.683594 35.191406 C 42.652344 38.613281 40.390625 41.507812 37.390625 43.347656 L 37.390625 43.359375 C 37.488281 43.671875 37.597656 43.972656 37.5 44.378906 C 37.417969 44.777344 37.402344 45.136719 37.574219 45.425781 C 37.703125 45.714844 37.847656 46.015625 38.003906 46.289062 C 38.328125 46.855469 38.6875 47.417969 39.214844 47.886719 C 39.742188 48.378906 39.777344 49.195312 39.296875 49.734375 C 38.804688 50.265625 37.992188 50.300781 37.453125 49.820312 C 37.175781 49.566406 37.03125 49.230469 37.03125 48.882812 C 37.007812 48.175781 36.828125 47.550781 36.609375 46.925781 C 36.503906 46.625 36.382812 46.328125 36.238281 46.027344 C 36.132812 45.714844 35.84375 45.496094 35.496094 45.292969 C 35.160156 45.113281 34.992188 44.859375 34.824219 44.585938 C 33.292969 45.148438 31.636719 45.449219 29.910156 45.449219 C 28.210938 45.449219 26.578125 45.148438 25.070312 44.609375 C 24.925781 44.875 24.757812 45.113281 24.421875 45.296875 C 24.074219 45.488281 23.785156 45.714844 23.679688 46.027344 C 23.535156 46.316406 23.402344 46.617188 23.296875 46.917969 C 23.078125 47.542969 22.886719 48.164062 22.875 48.875 C 22.851562 49.59375 22.238281 50.160156 21.519531 50.136719 C 20.800781 50.109375 20.238281 49.511719 20.261719 48.789062 C 20.273438 48.417969 20.441406 48.09375 20.695312 47.863281 C 21.222656 47.386719 21.582031 46.832031 21.917969 46.28125 C 22.074219 45.992188 22.214844 45.703125 22.347656 45.402344 C 22.515625 45.128906 22.503906 44.753906 22.429688 44.359375 C 22.347656 43.984375 22.429688 43.6875 22.527344 43.410156 C 19.519531 41.597656 17.21875 38.714844 16.164062 35.292969 C 15.886719 35.316406 15.625 35.316406 15.3125 35.160156 C 14.941406 35.003906 14.59375 34.90625 14.28125 35.015625 C 13.957031 35.078125 13.644531 35.160156 13.335938 35.257812 C 12.710938 35.460938 12.101562 35.6875 11.523438 36.097656 C 10.9375 36.515625 10.121094 36.371094 9.703125 35.785156 C 9.296875 35.195312 9.425781 34.378906 10.015625 33.96875 C 10.316406 33.753906 10.6875 33.679688 11.019531 33.742188 C 11.703125 33.886719 12.363281 33.835938 13.011719 33.753906 C 13.335938 33.71875 13.660156 33.65625 13.96875 33.574219 C 14.292969 33.550781 14.582031 33.308594 14.84375 33.011719 C 15.074219 32.746094 15.335938 32.636719 15.601562 32.542969 C 15.550781 32.046875 15.527344 31.546875 15.527344 31.039062 C 15.527344 27.964844 16.484375 25.121094 18.128906 22.777344 C 17.914062 22.5625 17.707031 22.347656 17.625 21.960938 C 17.515625 21.578125 17.375 21.242188 17.097656 21.0625 C 16.847656 20.847656 16.59375 20.652344 16.328125 20.472656 C 15.777344 20.113281 15.214844 19.777344 14.542969 19.574219 C 13.847656 19.382812 13.441406 18.648438 13.644531 17.964844 C 13.847656 17.269531 14.566406 16.871094 15.261719 17.066406 C 15.609375 17.171875 15.898438 17.414062 16.054688 17.714844 C 16.378906 18.339844 16.820312 18.828125 17.289062 19.285156 C 17.515625 19.515625 17.769531 19.730469 18.019531 19.921875 C 18.246094 20.164062 18.609375 20.234375 19.003906 20.257812 C 19.421875 20.269531 19.683594 20.453125 19.960938 20.632812 L 19.972656 20.644531 C 22.226562 18.457031 25.199219 17.015625 28.496094 16.703125 C 28.53125 16.382812 28.554688 16.054688 28.804688 15.734375 C 29.046875 15.410156 29.214844 15.082031 29.175781 14.761719 C 29.191406 14.4375 29.175781 14.109375 29.152344 13.773438 C 29.082031 13.125 28.984375 12.476562 28.710938 11.828125 C 28.421875 11.171875 28.734375 10.402344 29.394531 10.113281 C 30.050781 9.835938 30.820312 10.136719 31.109375 10.796875 C 31.25 11.144531 31.238281 11.515625 31.109375 11.828125 C 30.832031 12.480469 30.734375 13.125 30.664062 13.773438 C 30.640625 14.109375 30.628906 14.433594 30.640625 14.761719 C 30.605469 15.082031 30.769531 15.410156 31.011719 15.734375 C 31.261719 16.054688 31.289062 16.382812 31.324219 16.703125 C 34.703125 17.027344 37.746094 18.53125 40.023438 20.8125 C 40.300781 20.632812 40.5625 20.4375 40.984375 20.425781 C 41.378906 20.402344 41.738281 20.332031 41.964844 20.089844 C 42.214844 19.886719 42.457031 19.671875 42.695312 19.441406 C 43.152344 18.984375 43.59375 18.492188 43.917969 17.871094 C 44.242188 17.222656 45.035156 16.96875 45.667969 17.304688 C 46.316406 17.628906 46.566406 18.421875 46.234375 19.058594 C 46.066406 19.394531 45.777344 19.625 45.441406 19.71875 C 44.769531 19.914062 44.207031 20.261719 43.667969 20.621094 C 43.402344 20.8125 43.140625 21.003906 42.898438 21.21875 C 42.625 21.398438 42.480469 21.734375 42.371094 22.121094 C 42.289062 22.527344 42.0625 22.757812 41.832031 22.996094 C 43.390625 25.289062 44.292969 28.0625 44.292969 31.042969 C 44.292969 31.496094 44.265625 31.953125 44.230469 32.398438 L 44.242188 32.398438 C 44.554688 32.496094 44.867188 32.578125 45.140625 32.902344 C 45.417969 33.191406 45.707031 33.40625 46.03125 33.429688 C 46.355469 33.503906 46.664062 33.550781 46.988281 33.585938 C 47.648438 33.648438 48.296875 33.671875 48.988281 33.515625 C 49.699219 33.359375 50.390625 33.804688 50.546875 34.511719 C 50.707031 35.203125 50.265625 35.902344 49.558594 36.058594 Z M 39.824219 25.140625 C 38.925781 26.105469 38.003906 27.027344 37.078125 27.953125 C 36.492188 28.550781 35.859375 29.128906 35.246094 29.71875 C 36.0625 29.921875 36.875 30.136719 37.691406 30.378906 C 38.949219 30.738281 40.195312 31.085938 41.441406 31.492188 L 41.886719 31.636719 C 41.898438 31.445312 41.898438 31.242188 41.898438 31.039062 C 41.898438 28.742188 41.265625 26.605469 40.148438 24.792969 Z M 36.875 34.703125 C 36.3125 34.652344 35.761719 34.59375 35.199219 34.53125 C 34.839844 34.484375 34.550781 34.84375 34.683594 35.191406 C 34.886719 35.734375 35.078125 36.273438 35.269531 36.828125 C 35.691406 38.050781 36.121094 39.289062 36.515625 40.535156 L 36.648438 40.96875 C 38.734375 39.539062 40.351562 37.476562 41.203125 35.046875 L 40.78125 35.023438 C 39.476562 34.941406 38.183594 34.820312 36.875 34.703125 Z M 37.945312 22.128906 C 36.230469 20.566406 34.046875 19.5 31.640625 19.164062 L 31.699219 19.632812 C 31.867188 20.925781 31.988281 22.238281 32.109375 23.535156 C 32.15625 24.050781 32.203125 24.554688 32.238281 25.070312 C 32.261719 25.46875 32.707031 25.671875 33.03125 25.445312 C 33.4375 25.144531 33.859375 24.84375 34.289062 24.554688 C 35.367188 23.824219 36.433594 23.089844 37.535156 22.382812 Z M 31.265625 38.652344 C 30.980469 38.160156 30.703125 37.667969 30.441406 37.164062 C 30.25 36.8125 29.757812 36.8125 29.566406 37.164062 C 29.289062 37.679688 29 38.183594 28.703125 38.675781 C 28.042969 39.804688 27.382812 40.933594 26.6875 42.039062 L 26.390625 42.515625 C 27.503906 42.867188 28.691406 43.046875 29.914062 43.046875 C 31.171875 43.046875 32.394531 42.855469 33.53125 42.480469 L 33.257812 42.023438 C 32.5625 40.921875 31.914062 39.78125 31.265625 38.652344 Z M 27.71875 23.535156 C 27.839844 22.234375 27.960938 20.925781 28.128906 19.632812 L 28.1875 19.164062 C 25.875 19.484375 23.777344 20.484375 22.097656 21.949219 L 22.46875 22.175781 C 23.585938 22.875 24.664062 23.605469 25.742188 24.339844 C 26.367188 24.734375 26.953125 25.179688 27.539062 25.601562 C 27.589844 24.914062 27.648438 24.21875 27.71875 23.535156 Z M 24.84375 34.363281 C 24.28125 34.4375 23.730469 34.519531 23.167969 34.582031 C 21.859375 34.738281 20.578125 34.894531 19.269531 35.015625 L 18.625 35.074219 C 19.5 37.523438 21.152344 39.613281 23.273438 41.03125 L 23.441406 40.523438 C 23.847656 39.277344 24.28125 38.050781 24.722656 36.816406 C 24.925781 36.214844 25.144531 35.625 25.371094 35.027344 C 25.515625 34.675781 25.214844 34.304688 24.84375 34.363281 Z M 23.980469 29.730469 C 24.351562 29.621094 24.460938 29.152344 24.171875 28.890625 C 23.765625 28.515625 23.371094 28.144531 22.972656 27.746094 C 22.039062 26.824219 21.117188 25.910156 20.203125 24.960938 L 19.820312 24.566406 C 18.621094 26.425781 17.925781 28.648438 17.925781 31.039062 C 17.925781 31.265625 17.941406 31.480469 17.941406 31.699219 L 18.503906 31.503906 C 19.738281 31.0625 20.984375 30.675781 22.21875 30.269531 C 22.804688 30.078125 23.394531 29.910156 23.980469 29.730469 Z M 24.171875 28.890625 C 23.765625 28.515625 23.371094 28.144531 22.972656 27.746094 C 22.039062 26.824219 21.117188 25.910156 20.203125 24.960938 L 19.820312 24.566406 C 18.621094 26.425781 17.925781 28.648438 17.925781 31.039062 C 17.925781 31.265625 17.941406 31.480469 17.941406 31.699219 L 18.503906 31.503906 C 19.738281 31.0625 20.984375 30.675781 22.21875 30.269531 C 22.804688 30.078125 23.394531 29.910156 23.980469 29.730469 C 24.351562 29.621094 24.460938 29.152344 24.171875 28.890625 Z M 24.84375 34.363281 C 24.28125 34.4375 23.730469 34.519531 23.167969 34.582031 C 21.859375 34.738281 20.578125 34.894531 19.269531 35.015625 L 18.625 35.074219 C 19.5 37.523438 21.152344 39.613281 23.273438 41.03125 L 23.441406 40.523438 C 23.847656 39.277344 24.28125 38.050781 24.722656 36.816406 C 24.925781 36.214844 25.144531 35.625 25.371094 35.027344 C 25.515625 34.675781 25.214844 34.304688 24.84375 34.363281 Z M 33.257812 42.023438 C 32.5625 40.921875 31.914062 39.78125 31.265625 38.652344 C 30.980469 38.160156 30.703125 37.667969 30.441406 37.164062 C 30.25 36.8125 29.757812 36.8125 29.566406 37.164062 C 29.289062 37.679688 29 38.183594 28.703125 38.675781 C 28.042969 39.804688 27.382812 40.933594 26.6875 42.039062 L 26.390625 42.515625 C 27.503906 42.867188 28.691406 43.046875 29.914062 43.046875 C 31.171875 43.046875 32.394531 42.855469 33.53125 42.480469 Z M 31.640625 19.164062 L 31.699219 19.632812 C 31.867188 20.925781 31.988281 22.238281 32.109375 23.535156 C 32.15625 24.050781 32.203125 24.554688 32.238281 25.070312 C 32.261719 25.46875 32.707031 25.671875 33.03125 25.445312 C 33.4375 25.144531 33.859375 24.84375 34.289062 24.554688 C 35.367188 23.824219 36.433594 23.089844 37.535156 22.382812 L 37.945312 22.128906 C 36.230469 20.566406 34.046875 19.5 31.640625 19.164062 Z M 40.785156 35.023438 C 39.476562 34.941406 38.183594 34.820312 36.875 34.703125 C 36.3125 34.652344 35.761719 34.59375 35.199219 34.53125 C 34.839844 34.484375 34.550781 34.84375 34.683594 35.191406 C 34.886719 35.734375 35.078125 36.273438 35.269531 36.828125 C 35.691406 38.050781 36.121094 39.289062 36.515625 40.535156 L 36.648438 40.96875 C 38.734375 39.539062 40.351562 37.476562 41.203125 35.046875 Z M 40.148438 24.792969 L 39.824219 25.140625 C 38.925781 26.105469 38.003906 27.027344 37.078125 27.953125 C 36.492188 28.550781 35.859375 29.128906 35.246094 29.71875 C 36.0625 29.921875 36.875 30.136719 37.691406 30.378906 C 38.949219 30.738281 40.195312 31.085938 41.441406 31.492188 L 41.886719 31.636719 C 41.898438 31.445312 41.898438 31.242188 41.898438 31.039062 C 41.898438 28.746094 41.265625 26.609375 40.148438 24.792969 Z M 40.148438 24.792969 L 39.824219 25.140625 C 38.925781 26.105469 38.003906 27.027344 37.078125 27.953125 C 36.492188 28.550781 35.859375 29.128906 35.246094 29.71875 C 36.0625 29.921875 36.875 30.136719 37.691406 30.378906 C 38.949219 30.738281 40.195312 31.085938 41.441406 31.492188 L 41.886719 31.636719 C 41.898438 31.445312 41.898438 31.242188 41.898438 31.039062 C 41.898438 28.746094 41.265625 26.609375 40.148438 24.792969 Z M 40.785156 35.023438 C 39.476562 34.941406 38.183594 34.820312 36.875 34.703125 C 36.3125 34.652344 35.761719 34.59375 35.199219 34.53125 C 34.839844 34.484375 34.550781 34.84375 34.683594 35.191406 C 34.886719 35.734375 35.078125 36.273438 35.269531 36.828125 C 35.691406 38.050781 36.121094 39.289062 36.515625 40.535156 L 36.648438 40.96875 C 38.734375 39.539062 40.351562 37.476562 41.203125 35.046875 Z M 31.640625 19.164062 L 31.699219 19.632812 C 31.867188 20.925781 31.988281 22.238281 32.109375 23.535156 C 32.15625 24.050781 32.203125 24.554688 32.238281 25.070312 C 32.261719 25.46875 32.707031 25.671875 33.03125 25.445312 C 33.4375 25.144531 33.859375 24.84375 34.289062 24.554688 C 35.367188 23.824219 36.433594 23.089844 37.535156 22.382812 L 37.945312 22.128906 C 36.230469 20.566406 34.046875 19.5 31.640625 19.164062 Z M 33.257812 42.023438 C 32.5625 40.921875 31.914062 39.78125 31.265625 38.652344 C 30.980469 38.160156 30.703125 37.667969 30.441406 37.164062 C 30.25 36.8125 29.757812 36.8125 29.566406 37.164062 C 29.289062 37.679688 29 38.183594 28.703125 38.675781 C 28.042969 39.804688 27.382812 40.933594 26.6875 42.039062 L 26.390625 42.515625 C 27.503906 42.867188 28.691406 43.046875 29.914062 43.046875 C 31.171875 43.046875 32.394531 42.855469 33.53125 42.480469 Z M 24.84375 34.363281 C 24.28125 34.4375 23.730469 34.519531 23.167969 34.582031 C 21.859375 34.738281 20.578125 34.894531 19.269531 35.015625 L 18.625 35.074219 C 19.5 37.523438 21.152344 39.613281 23.273438 41.03125 L 23.441406 40.523438 C 23.847656 39.277344 24.28125 38.050781 24.722656 36.816406 C 24.925781 36.214844 25.144531 35.625 25.371094 35.027344 C 25.515625 34.675781 25.214844 34.304688 24.84375 34.363281 Z M 24.171875 28.890625 C 23.765625 28.515625 23.371094 28.144531 22.972656 27.746094 C 22.039062 26.824219 21.117188 25.910156 20.203125 24.960938 L 19.820312 24.566406 C 18.621094 26.425781 17.925781 28.648438 17.925781 31.039062 C 17.925781 31.265625 17.941406 31.480469 17.941406 31.699219 L 18.503906 31.503906 C 19.738281 31.0625 20.984375 30.675781 22.21875 30.269531 C 22.804688 30.078125 23.394531 29.910156 23.980469 29.730469 C 24.351562 29.621094 24.460938 29.152344 24.171875 28.890625 Z M 24.84375 34.363281 C 24.28125 34.4375 23.730469 34.519531 23.167969 34.582031 C 21.859375 34.738281 20.578125 34.894531 19.269531 35.015625 L 18.625 35.074219 C 19.5 37.523438 21.152344 39.613281 23.273438 41.03125 L 23.441406 40.523438 C 23.847656 39.277344 24.28125 38.050781 24.722656 36.816406 C 24.925781 36.214844 25.144531 35.625 25.371094 35.027344 C 25.515625 34.675781 25.214844 34.304688 24.84375 34.363281 Z M 33.257812 42.023438 C 32.5625 40.921875 31.914062 39.78125 31.265625 38.652344 C 30.980469 38.160156 30.703125 37.667969 30.441406 37.164062 C 30.25 36.8125 29.757812 36.8125 29.566406 37.164062 C 29.289062 37.679688 29 38.183594 28.703125 38.675781 C 28.042969 39.804688 27.382812 40.933594 26.6875 42.039062 L 26.390625 42.515625 C 27.503906 42.867188 28.691406 43.046875 29.914062 43.046875 C 31.171875 43.046875 32.394531 42.855469 33.53125 42.480469 Z M 31.640625 19.164062 L 31.699219 19.632812 C 31.867188 20.925781 31.988281 22.238281 32.109375 23.535156 C 32.15625 24.050781 32.203125 24.554688 32.238281 25.070312 C 32.261719 25.46875 32.707031 25.671875 33.03125 25.445312 C 33.4375 25.144531 33.859375 24.84375 34.289062 24.554688 C 35.367188 23.824219 36.433594 23.089844 37.535156 22.382812 L 37.945312 22.128906 C 36.230469 20.566406 34.046875 19.5 31.640625 19.164062 Z M 40.785156 35.023438 C 39.476562 34.941406 38.183594 34.820312 36.875 34.703125 C 36.3125 34.652344 35.761719 34.59375 35.199219 34.53125 C 34.839844 34.484375 34.550781 34.84375 34.683594 35.191406 C 34.886719 35.734375 35.078125 36.273438 35.269531 36.828125 C 35.691406 38.050781 36.121094 39.289062 36.515625 40.535156 L 36.648438 40.96875 C 38.734375 39.539062 40.351562 37.476562 41.203125 35.046875 Z M 40.148438 24.792969 L 39.824219 25.140625 C 38.925781 26.105469 38.003906 27.027344 37.078125 27.953125 C 36.492188 28.550781 35.859375 29.128906 35.246094 29.71875 C 36.0625 29.921875 36.875 30.136719 37.691406 30.378906 C 38.949219 30.738281 40.195312 31.085938 41.441406 31.492188 L 41.886719 31.636719 C 41.898438 31.445312 41.898438 31.242188 41.898438 31.039062 C 41.898438 28.746094 41.265625 26.609375 40.148438 24.792969 Z M 40.148438 24.792969 L 39.824219 25.140625 C 38.925781 26.105469 38.003906 27.027344 37.078125 27.953125 C 36.492188 28.550781 35.859375 29.128906 35.246094 29.71875 C 36.0625 29.921875 36.875 30.136719 37.691406 30.378906 C 38.949219 30.738281 40.195312 31.085938 41.441406 31.492188 L 41.886719 31.636719 C 41.898438 31.445312 41.898438 31.242188 41.898438 31.039062 C 41.898438 28.746094 41.265625 26.609375 40.148438 24.792969 Z M 40.785156 35.023438 C 39.476562 34.941406 38.183594 34.820312 36.875 34.703125 C 36.3125 34.652344 35.761719 34.59375 35.199219 34.53125 C 34.839844 34.484375 34.550781 34.84375 34.683594 35.191406 C 34.886719 35.734375 35.078125 36.273438 35.269531 36.828125 C 35.691406 38.050781 36.121094 39.289062 36.515625 40.535156 L 36.648438 40.96875 C 38.734375 39.539062 40.351562 37.476562 41.203125 35.046875 Z M 31.640625 19.164062 L 31.699219 19.632812 C 31.867188 20.925781 31.988281 22.238281 32.109375 23.535156 C 32.15625 24.050781 32.203125 24.554688 32.238281 25.070312 C 32.261719 25.46875 32.707031 25.671875 33.03125 25.445312 C 33.4375 25.144531 33.859375 24.84375 34.289062 24.554688 C 35.367188 23.824219 36.433594 23.089844 37.535156 22.382812 L 37.945312 22.128906 C 36.230469 20.566406 34.046875 19.5 31.640625 19.164062 Z M 33.257812 42.023438 C 32.5625 40.921875 31.914062 39.78125 31.265625 38.652344 C 30.980469 38.160156 30.703125 37.667969 30.441406 37.164062 C 30.25 36.8125 29.757812 36.8125 29.566406 37.164062 C 29.289062 37.679688 29 38.183594 28.703125 38.675781 C 28.042969 39.804688 27.382812 40.933594 26.6875 42.039062 L 26.390625 42.515625 C 27.503906 42.867188 28.691406 43.046875 29.914062 43.046875 C 31.171875 43.046875 32.394531 42.855469 33.53125 42.480469 Z M 24.84375 34.363281 C 24.28125 34.4375 23.730469 34.519531 23.167969 34.582031 C 21.859375 34.738281 20.578125 34.894531 19.269531 35.015625 L 18.625 35.074219 C 19.5 37.523438 21.152344 39.613281 23.273438 41.03125 L 23.441406 40.523438 C 23.847656 39.277344 24.28125 38.050781 24.722656 36.816406 C 24.925781 36.214844 25.144531 35.625 25.371094 35.027344 C 25.515625 34.675781 25.214844 34.304688 24.84375 34.363281 Z M 33.257812 42.023438 C 32.5625 40.921875 31.914062 39.78125 31.265625 38.652344 C 30.980469 38.160156 30.703125 37.667969 30.441406 37.164062 C 30.25 36.8125 29.757812 36.8125 29.566406 37.164062 C 29.289062 37.679688 29 38.183594 28.703125 38.675781 C 28.042969 39.804688 27.382812 40.933594 26.6875 42.039062 L 26.390625 42.515625 C 27.503906 42.867188 28.691406 43.046875 29.914062 43.046875 C 31.171875 43.046875 32.394531 42.855469 33.53125 42.480469 Z M 31.640625 19.164062 L 31.699219 19.632812 C 31.867188 20.925781 31.988281 22.238281 32.109375 23.535156 C 32.15625 24.050781 32.203125 24.554688 32.238281 25.070312 C 32.261719 25.46875 32.707031 25.671875 33.03125 25.445312 C 33.4375 25.144531 33.859375 24.84375 34.289062 24.554688 C 35.367188 23.824219 36.433594 23.089844 37.535156 22.382812 L 37.945312 22.128906 C 36.230469 20.566406 34.046875 19.5 31.640625 19.164062 Z M 40.785156 35.023438 C 39.476562 34.941406 38.183594 34.820312 36.875 34.703125 C 36.3125 34.652344 35.761719 34.59375 35.199219 34.53125 C 34.839844 34.484375 34.550781 34.84375 34.683594 35.191406 C 34.886719 35.734375 35.078125 36.273438 35.269531 36.828125 C 35.691406 38.050781 36.121094 39.289062 36.515625 40.535156 L 36.648438 40.96875 C 38.734375 39.539062 40.351562 37.476562 41.203125 35.046875 Z M 40.148438 24.792969 L 39.824219 25.140625 C 38.925781 26.105469 38.003906 27.027344 37.078125 27.953125 C 36.492188 28.550781 35.859375 29.128906 35.246094 29.71875 C 36.0625 29.921875 36.875 30.136719 37.691406 30.378906 C 38.949219 30.738281 40.195312 31.085938 41.441406 31.492188 L 41.886719 31.636719 C 41.898438 31.445312 41.898438 31.242188 41.898438 31.039062 C 41.898438 28.746094 41.265625 26.609375 40.148438 24.792969 Z M 40.148438 24.792969 L 39.824219 25.140625 C 38.925781 26.105469 38.003906 27.027344 37.078125 27.953125 C 36.492188 28.550781 35.859375 29.128906 35.246094 29.71875 C 36.0625 29.921875 36.875 30.136719 37.691406 30.378906 C 38.949219 30.738281 40.195312 31.085938 41.441406 31.492188 L 41.886719 31.636719 C 41.898438 31.445312 41.898438 31.242188 41.898438 31.039062 C 41.898438 28.746094 41.265625 26.609375 40.148438 24.792969 Z M 40.785156 35.023438 C 39.476562 34.941406 38.183594 34.820312 36.875 34.703125 C 36.3125 34.652344 35.761719 34.59375 35.199219 34.53125 C 34.839844 34.484375 34.550781 34.84375 34.683594 35.191406 C 34.886719 35.734375 35.078125 36.273438 35.269531 36.828125 C 35.691406 38.050781 36.121094 39.289062 36.515625 40.535156 L 36.648438 40.96875 C 38.734375 39.539062 40.351562 37.476562 41.203125 35.046875 Z M 31.640625 19.164062 L 31.699219 19.632812 C 31.867188 20.925781 31.988281 22.238281 32.109375 23.535156 C 32.15625 24.050781 32.203125 24.554688 32.238281 25.070312 C 32.261719 25.46875 32.707031 25.671875 33.03125 25.445312 C 33.4375 25.144531 33.859375 24.84375 34.289062 24.554688 C 35.367188 23.824219 36.433594 23.089844 37.535156 22.382812 L 37.945312 22.128906 C 36.230469 20.566406 34.046875 19.5 31.640625 19.164062 Z M 33.257812 42.023438 C 32.5625 40.921875 31.914062 39.78125 31.265625 38.652344 C 30.980469 38.160156 30.703125 37.667969 30.441406 37.164062 C 30.25 36.8125 29.757812 36.8125 29.566406 37.164062 C 29.289062 37.679688 29 38.183594 28.703125 38.675781 C 28.042969 39.804688 27.382812 40.933594 26.6875 42.039062 L 26.390625 42.515625 C 27.503906 42.867188 28.691406 43.046875 29.914062 43.046875 C 31.171875 43.046875 32.394531 42.855469 33.53125 42.480469 Z M 33.257812 42.023438 C 32.5625 40.921875 31.914062 39.78125 31.265625 38.652344 C 30.980469 38.160156 30.703125 37.667969 30.441406 37.164062 C 30.25 36.8125 29.757812 36.8125 29.566406 37.164062 C 29.289062 37.679688 29 38.183594 28.703125 38.675781 C 28.042969 39.804688 27.382812 40.933594 26.6875 42.039062 L 26.390625 42.515625 C 27.503906 42.867188 28.691406 43.046875 29.914062 43.046875 C 31.171875 43.046875 32.394531 42.855469 33.53125 42.480469 Z M 31.640625 19.164062 L 31.699219 19.632812 C 31.867188 20.925781 31.988281 22.238281 32.109375 23.535156 C 32.15625 24.050781 32.203125 24.554688 32.238281 25.070312 C 32.261719 25.46875 32.707031 25.671875 33.03125 25.445312 C 33.4375 25.144531 33.859375 24.84375 34.289062 24.554688 C 35.367188 23.824219 36.433594 23.089844 37.535156 22.382812 L 37.945312 22.128906 C 36.230469 20.566406 34.046875 19.5 31.640625 19.164062 Z M 40.785156 35.023438 C 39.476562 34.941406 38.183594 34.820312 36.875 34.703125 C 36.3125 34.652344 35.761719 34.59375 35.199219 34.53125 C 34.839844 34.484375 34.550781 34.84375 34.683594 35.191406 C 34.886719 35.734375 35.078125 36.273438 35.269531 36.828125 C 35.691406 38.050781 36.121094 39.289062 36.515625 40.535156 L 36.648438 40.96875 C 38.734375 39.539062 40.351562 37.476562 41.203125 35.046875 Z M 40.148438 24.792969 L 39.824219 25.140625 C 38.925781 26.105469 38.003906 27.027344 37.078125 27.953125 C 36.492188 28.550781 35.859375 29.128906 35.246094 29.71875 C 36.0625 29.921875 36.875 30.136719 37.691406 30.378906 C 38.949219 30.738281 40.195312 31.085938 41.441406 31.492188 L 41.886719 31.636719 C 41.898438 31.445312 41.898438 31.242188 41.898438 31.039062 C 41.898438 28.746094 41.265625 26.609375 40.148438 24.792969 Z M 40.148438 24.792969 L 39.824219 25.140625 C 38.925781 26.105469 38.003906 27.027344 37.078125 27.953125 C 36.492188 28.550781 35.859375 29.128906 35.246094 29.71875 C 36.0625 29.921875 36.875 30.136719 37.691406 30.378906 C 38.949219 30.738281 40.195312 31.085938 41.441406 31.492188 L 41.886719 31.636719 C 41.898438 31.445312 41.898438 31.242188 41.898438 31.039062 C 41.898438 28.746094 41.265625 26.609375 40.148438 24.792969 Z M 40.785156 35.023438 C 39.476562 34.941406 38.183594 34.820312 36.875 34.703125 C 36.3125 34.652344 35.761719 34.59375 35.199219 34.53125 C 34.839844 34.484375 34.550781 34.84375 34.683594 35.191406 C 34.886719 35.734375 35.078125 36.273438 35.269531 36.828125 C 35.691406 38.050781 36.121094 39.289062 36.515625 40.535156 L 36.648438 40.96875 C 38.734375 39.539062 40.351562 37.476562 41.203125 35.046875 Z M 31.640625 19.164062 L 31.699219 19.632812 C 31.867188 20.925781 31.988281 22.238281 32.109375 23.535156 C 32.15625 24.050781 32.203125 24.554688 32.238281 25.070312 C 32.261719 25.46875 32.707031 25.671875 33.03125 25.445312 C 33.4375 25.144531 33.859375 24.84375 34.289062 24.554688 C 35.367188 23.824219 36.433594 23.089844 37.535156 22.382812 L 37.945312 22.128906 C 36.230469 20.566406 34.046875 19.5 31.640625 19.164062 Z M 33.257812 42.023438 C 32.5625 40.921875 31.914062 39.78125 31.265625 38.652344 C 30.980469 38.160156 30.703125 37.667969 30.441406 37.164062 C 30.25 36.8125 29.757812 36.8125 29.566406 37.164062 C 29.289062 37.679688 29 38.183594 28.703125 38.675781 C 28.042969 39.804688 27.382812 40.933594 26.6875 42.039062 L 26.390625 42.515625 C 27.503906 42.867188 28.691406 43.046875 29.914062 43.046875 C 31.171875 43.046875 32.394531 42.855469 33.53125 42.480469 Z M 31.640625 19.164062 L 31.699219 19.632812 C 31.867188 20.925781 31.988281 22.238281 32.109375 23.535156 C 32.15625 24.050781 32.203125 24.554688 32.238281 25.070312 C 32.261719 25.46875 32.707031 25.671875 33.03125 25.445312 C 33.4375 25.144531 33.859375 24.84375 34.289062 24.554688 C 35.367188 23.824219 36.433594 23.089844 37.535156 22.382812 L 37.945312 22.128906 C 36.230469 20.566406 34.046875 19.5 31.640625 19.164062 Z M 40.785156 35.023438 C 39.476562 34.941406 38.183594 34.820312 36.875 34.703125 C 36.3125 34.652344 35.761719 34.59375 35.199219 34.53125 C 34.839844 34.484375 34.550781 34.84375 34.683594 35.191406 C 34.886719 35.734375 35.078125 36.273438 35.269531 36.828125 C 35.691406 38.050781 36.121094 39.289062 36.515625 40.535156 L 36.648438 40.96875 C 38.734375 39.539062 40.351562 37.476562 41.203125 35.046875 Z M 40.148438 24.792969 L 39.824219 25.140625 C 38.925781 26.105469 38.003906 27.027344 37.078125 27.953125 C 36.492188 28.550781 35.859375 29.128906 35.246094 29.71875 C 36.0625 29.921875 36.875 30.136719 37.691406 30.378906 C 38.949219 30.738281 40.195312 31.085938 41.441406 31.492188 L 41.886719 31.636719 C 41.898438 31.445312 41.898438 31.242188 41.898438 31.039062 C 41.898438 28.746094 41.265625 26.609375 40.148438 24.792969 Z M 40.148438 24.792969 L 39.824219 25.140625 C 38.925781 26.105469 38.003906 27.027344 37.078125 27.953125 C 36.492188 28.550781 35.859375 29.128906 35.246094 29.71875 C 36.0625 29.921875 36.875 30.136719 37.691406 30.378906 C 38.949219 30.738281 40.195312 31.085938 41.441406 31.492188 L 41.886719 31.636719 C 41.898438 31.445312 41.898438 31.242188 41.898438 31.039062 C 41.898438 28.746094 41.265625 26.609375 40.148438 24.792969 Z M 40.785156 35.023438 C 39.476562 34.941406 38.183594 34.820312 36.875 34.703125 C 36.3125 34.652344 35.761719 34.59375 35.199219 34.53125 C 34.839844 34.484375 34.550781 34.84375 34.683594 35.191406 C 34.886719 35.734375 35.078125 36.273438 35.269531 36.828125 C 35.691406 38.050781 36.121094 39.289062 36.515625 40.535156 L 36.648438 40.96875 C 38.734375 39.539062 40.351562 37.476562 41.203125 35.046875 Z M 31.640625 19.164062 L 31.699219 19.632812 C 31.867188 20.925781 31.988281 22.238281 32.109375 23.535156 C 32.15625 24.050781 32.203125 24.554688 32.238281 25.070312 C 32.261719 25.46875 32.707031 25.671875 33.03125 25.445312 C 33.4375 25.144531 33.859375 24.84375 34.289062 24.554688 C 35.367188 23.824219 36.433594 23.089844 37.535156 22.382812 L 37.945312 22.128906 C 36.230469 20.566406 34.046875 19.5 31.640625 19.164062 Z M 31.640625 19.164062 L 31.699219 19.632812 C 31.867188 20.925781 31.988281 22.238281 32.109375 23.535156 C 32.15625 24.050781 32.203125 24.554688 32.238281 25.070312 C 32.261719 25.46875 32.707031 25.671875 33.03125 25.445312 C 33.4375 25.144531 33.859375 24.84375 34.289062 24.554688 C 35.367188 23.824219 36.433594 23.089844 37.535156 22.382812 L 37.945312 22.128906 C 36.230469 20.566406 34.046875 19.5 31.640625 19.164062 Z M 40.148438 24.792969 L 39.824219 25.140625 C 38.925781 26.105469 38.003906 27.027344 37.078125 27.953125 C 36.492188 28.550781 35.859375 29.128906 35.246094 29.71875 C 36.0625 29.921875 36.875 30.136719 37.691406 30.378906 C 38.949219 30.738281 40.195312 31.085938 41.441406 31.492188 L 41.886719 31.636719 C 41.898438 31.445312 41.898438 31.242188 41.898438 31.039062 C 41.898438 28.746094 41.265625 26.609375 40.148438 24.792969 Z M 40.148438 24.792969 L 39.824219 25.140625 C 38.925781 26.105469 38.003906 27.027344 37.078125 27.953125 C 36.492188 28.550781 35.859375 29.128906 35.246094 29.71875 C 36.0625 29.921875 36.875 30.136719 37.691406 30.378906 C 38.949219 30.738281 40.195312 31.085938 41.441406 31.492188 L 41.886719 31.636719 C 41.898438 31.445312 41.898438 31.242188 41.898438 31.039062 C 41.898438 28.746094 41.265625 26.609375 40.148438 24.792969 Z M 31.640625 19.164062 L 31.699219 19.632812 C 31.867188 20.925781 31.988281 22.238281 32.109375 23.535156 C 32.15625 24.050781 32.203125 24.554688 32.238281 25.070312 C 32.261719 25.46875 32.707031 25.671875 33.03125 25.445312 C 33.4375 25.144531 33.859375 24.84375 34.289062 24.554688 C 35.367188 23.824219 36.433594 23.089844 37.535156 22.382812 L 37.945312 22.128906 C 36.230469 20.566406 34.046875 19.5 31.640625 19.164062 Z M 31.640625 19.164062 L 31.699219 19.632812 C 31.867188 20.925781 31.988281 22.238281 32.109375 23.535156 C 32.15625 24.050781 32.203125 24.554688 32.238281 25.070312 C 32.261719 25.46875 32.707031 25.671875 33.03125 25.445312 C 33.4375 25.144531 33.859375 24.84375 34.289062 24.554688 C 35.367188 23.824219 36.433594 23.089844 37.535156 22.382812 L 37.945312 22.128906 C 36.230469 20.566406 34.046875 19.5 31.640625 19.164062 Z M 40.148438 24.792969 L 39.824219 25.140625 C 38.925781 26.105469 38.003906 27.027344 37.078125 27.953125 C 36.492188 28.550781 35.859375 29.128906 35.246094 29.71875 C 36.0625 29.921875 36.875 30.136719 37.691406 30.378906 C 38.949219 30.738281 40.195312 31.085938 41.441406 31.492188 L 41.886719 31.636719 C 41.898438 31.445312 41.898438 31.242188 41.898438 31.039062 C 41.898438 28.746094 41.265625 26.609375 40.148438 24.792969 Z M 40.148438 24.792969 L 39.824219 25.140625 C 38.925781 26.105469 38.003906 27.027344 37.078125 27.953125 C 36.492188 28.550781 35.859375 29.128906 35.246094 29.71875 C 36.0625 29.921875 36.875 30.136719 37.691406 30.378906 C 38.949219 30.738281 40.195312 31.085938 41.441406 31.492188 L 41.886719 31.636719 C 41.898438 31.445312 41.898438 31.242188 41.898438 31.039062 C 41.898438 28.746094 41.265625 26.609375 40.148438 24.792969 Z M 31.640625 19.164062 L 31.699219 19.632812 C 31.867188 20.925781 31.988281 22.238281 32.109375 23.535156 C 32.15625 24.050781 32.203125 24.554688 32.238281 25.070312 C 32.261719 25.46875 32.707031 25.671875 33.03125 25.445312 C 33.4375 25.144531 33.859375 24.84375 34.289062 24.554688 C 35.367188 23.824219 36.433594 23.089844 37.535156 22.382812 L 37.945312 22.128906 C 36.230469 20.566406 34.046875 19.5 31.640625 19.164062 Z M 31.640625 19.164062 L 31.699219 19.632812 C 31.867188 20.925781 31.988281 22.238281 32.109375 23.535156 C 32.15625 24.050781 32.203125 24.554688 32.238281 25.070312 C 32.261719 25.46875 32.707031 25.671875 33.03125 25.445312 C 33.4375 25.144531 33.859375 24.84375 34.289062 24.554688 C 35.367188 23.824219 36.433594 23.089844 37.535156 22.382812 L 37.945312 22.128906 C 36.230469 20.566406 34.046875 19.5 31.640625 19.164062 Z M 31.640625 19.164062 L 31.699219 19.632812 C 31.867188 20.925781 31.988281 22.238281 32.109375 23.535156 C 32.15625 24.050781 32.203125 24.554688 32.238281 25.070312 C 32.261719 25.46875 32.707031 25.671875 33.03125 25.445312 C 33.4375 25.144531 33.859375 24.84375 34.289062 24.554688 C 35.367188 23.824219 36.433594 23.089844 37.535156 22.382812 L 37.945312 22.128906 C 36.230469 20.566406 34.046875 19.5 31.640625 19.164062 Z M 31.640625 19.164062 "/>
</g>
</svg>
